# xmcd
#
# Track frame offsets:
#	150
#	25500
#	48582
#	70365
#	92455
#	116027
#	142983
#	173467
#	198746
#	205919
#	224690
#
# Disc length: 3157 seconds
#
# Revision: 2
# Processed by: cddbd v1.5.1PL2 Copyright (c) Steve Scherf et al.
# Submitted via: EasyCDDAExtractor 8.0.2.1
#
DISCID=9f0c530b
DTITLE=Deep Purple - KB-Hallen Copenhagen 28-01-06 Disc 1
DYEAR=2006
DGENRE=Hard Rock
TTITLE0=Pictures Of Home
TTITLE1=Things I Never Said
TTITLE2=Wrong Man
TTITLE3=Ted The Mechanic
TTITLE4=Living Wreck
TTITLE5=Rapture Of The Deep
TTITLE6=Before Time Began
TTITLE7=Mary Long
TTITLE8=Guitar
TTITLE9=Contact Lost
TTITLE10=The Well Dressed Guitar
EXTD=
EXTT0=
EXTT1=
EXTT2=
EXTT3=
EXTT4=
EXTT5=
EXTT6=
EXTT7=
EXTT8=
EXTT9=
EXTT10=
PLAYORDER=
